<?xml version="1.0" encoding="ISO-8859-1"?>
<!DOCTYPE svg PUBLIC "-//W3C//DTD SVG 1.0//EN" "http://www.w3.org/TR/2001/REC-SVG-20010904/DTD/svg10.dtd">
<!-- generated by Grace-5.1.23 -->
<svg xml:space="preserve" width="2.6400in" height="2.0400in" viewBox="0.0000 0.0000 190.0800 146.8800">
 <g transform="translate(0,146.8800) scale(1,-1)">
  <g style="fill:#FFFFFF; fill-rule:nonzero">
   <path  d="M0.0000,0.0000L0.0000,146.8800L190.0800,146.8800L190.0800,0.0000z"/>
  </g>
  <g style="fill:none; stroke:#000000; stroke-width:  0.2203; stroke-linecap:butt; stroke-linejoin:miter; stroke-dasharray:none">
   <path d="M29.3760,22.0173L29.3760,42.1546L33.0480,35.9856L36.7200,51.5549L40.3920,58.0176L44.0640,63.7459L47.7360,68.5930L51.4080,72.7056L55.0800,76.2307L58.7520,79.4621
            L62.4240,82.1647L66.0960,84.5735L69.7680,86.7180L73.4400,88.6274L77.1120,90.3312L80.7840,91.8881L84.4560,93.3129L88.1280,94.6245L91.8000,95.8377L95.4720,96.9702
            L99.1440,98.0277L102.8160,99.0412L106.4880,99.9812L110.1600,100.8919L113.8320,101.7585L117.5040,102.5810L121.1760,103.3595L124.8480,104.0939L128.5200,104.7695L132.1920,105.3864
            L135.8640,105.9152"/>
  </g>
  <g style="fill:#000000; fill-rule:nonzero">
   <ellipse  rx="0.7344" ry="0.7344" cx="29.3760" cy="42.1546"/>
  </g>
  <g style="fill:none; stroke:#000000; stroke-width:  0.2203; stroke-linecap:butt; stroke-linejoin:miter; stroke-dasharray:none">
   <ellipse  rx="0.7344" ry="0.7344" cx="29.3760" cy="42.1546"/>
  </g>
  <g style="fill:#000000; fill-rule:nonzero">
   <ellipse  rx="0.7344" ry="0.7344" cx="33.0480" cy="35.9856"/>
  </g>
  <g style="fill:none; stroke:#000000; stroke-width:  0.2203; stroke-linecap:butt; stroke-linejoin:miter; stroke-dasharray:none">
   <ellipse  rx="0.7344" ry="0.7344" cx="33.0480" cy="35.9856"/>
  </g>
  <g style="fill:#000000; fill-rule:nonzero">
   <ellipse  rx="0.7344" ry="0.7344" cx="36.7200" cy="51.5549"/>
  </g>
  <g style="fill:none; stroke:#000000; stroke-width:  0.2203; stroke-linecap:butt; stroke-linejoin:miter; stroke-dasharray:none">
   <ellipse  rx="0.7344" ry="0.7344" cx="36.7200" cy="51.5549"/>
  </g>
  <g style="fill:#000000; fill-rule:nonzero">
   <ellipse  rx="0.7344" ry="0.7344" cx="40.3920" cy="58.0176"/>
  </g>
  <g style="fill:none; stroke:#000000; stroke-width:  0.2203; stroke-linecap:butt; stroke-linejoin:miter; stroke-dasharray:none">
   <ellipse  rx="0.7344" ry="0.7344" cx="40.3920" cy="58.0176"/>
  </g>
  <g style="fill:#000000; fill-rule:nonzero">
   <ellipse  rx="0.7344" ry="0.7344" cx="44.0640" cy="63.7459"/>
  </g>
  <g style="fill:none; stroke:#000000; stroke-width:  0.2203; stroke-linecap:butt; stroke-linejoin:miter; stroke-dasharray:none">
   <ellipse  rx="0.7344" ry="0.7344" cx="44.0640" cy="63.7459"/>
  </g>
  <g style="fill:#000000; fill-rule:nonzero">
   <ellipse  rx="0.7344" ry="0.7344" cx="47.7360" cy="68.5930"/>
  </g>
  <g style="fill:none; stroke:#000000; stroke-width:  0.2203; stroke-linecap:butt; stroke-linejoin:miter; stroke-dasharray:none">
   <ellipse  rx="0.7344" ry="0.7344" cx="47.7360" cy="68.5930"/>
  </g>
  <g style="fill:#000000; fill-rule:nonzero">
   <ellipse  rx="0.7344" ry="0.7344" cx="51.4080" cy="72.7056"/>
  </g>
  <g style="fill:none; stroke:#000000; stroke-width:  0.2203; stroke-linecap:butt; stroke-linejoin:miter; stroke-dasharray:none">
   <ellipse  rx="0.7344" ry="0.7344" cx="51.4080" cy="72.7056"/>
  </g>
  <g style="fill:#000000; fill-rule:nonzero">
   <ellipse  rx="0.7344" ry="0.7344" cx="55.0800" cy="76.2307"/>
  </g>
  <g style="fill:none; stroke:#000000; stroke-width:  0.2203; stroke-linecap:butt; stroke-linejoin:miter; stroke-dasharray:none">
   <ellipse  rx="0.7344" ry="0.7344" cx="55.0800" cy="76.2307"/>
  </g>
  <g style="fill:#000000; fill-rule:nonzero">
   <ellipse  rx="0.7344" ry="0.7344" cx="58.7520" cy="79.4621"/>
  </g>
  <g style="fill:none; stroke:#000000; stroke-width:  0.2203; stroke-linecap:butt; stroke-linejoin:miter; stroke-dasharray:none">
   <ellipse  rx="0.7344" ry="0.7344" cx="58.7520" cy="79.4621"/>
  </g>
  <g style="fill:#000000; fill-rule:nonzero">
   <ellipse  rx="0.7344" ry="0.7344" cx="62.4240" cy="82.1647"/>
  </g>
  <g style="fill:none; stroke:#000000; stroke-width:  0.2203; stroke-linecap:butt; stroke-linejoin:miter; stroke-dasharray:none">
   <ellipse  rx="0.7344" ry="0.7344" cx="62.4240" cy="82.1647"/>
  </g>
  <g style="fill:#000000; fill-rule:nonzero">
   <ellipse  rx="0.7344" ry="0.7344" cx="66.0960" cy="84.5735"/>
  </g>
  <g style="fill:none; stroke:#000000; stroke-width:  0.2203; stroke-linecap:butt; stroke-linejoin:miter; stroke-dasharray:none">
   <ellipse  rx="0.7344" ry="0.7344" cx="66.0960" cy="84.5735"/>
  </g>
  <g style="fill:#000000; fill-rule:nonzero">
   <ellipse  rx="0.7344" ry="0.7344" cx="69.7680" cy="86.7180"/>
  </g>
  <g style="fill:none; stroke:#000000; stroke-width:  0.2203; stroke-linecap:butt; stroke-linejoin:miter; stroke-dasharray:none">
   <ellipse  rx="0.7344" ry="0.7344" cx="69.7680" cy="86.7180"/>
  </g>
  <g style="fill:#000000; fill-rule:nonzero">
   <ellipse  rx="0.7344" ry="0.7344" cx="73.4400" cy="88.6274"/>
  </g>
  <g style="fill:none; stroke:#000000; stroke-width:  0.2203; stroke-linecap:butt; stroke-linejoin:miter; stroke-dasharray:none">
   <ellipse  rx="0.7344" ry="0.7344" cx="73.4400" cy="88.6274"/>
  </g>
  <g style="fill:#000000; fill-rule:nonzero">
   <ellipse  rx="0.7344" ry="0.7344" cx="77.1120" cy="90.3312"/>
  </g>
  <g style="fill:none; stroke:#000000; stroke-width:  0.2203; stroke-linecap:butt; stroke-linejoin:miter; stroke-dasharray:none">
   <ellipse  rx="0.7344" ry="0.7344" cx="77.1120" cy="90.3312"/>
  </g>
  <g style="fill:#000000; fill-rule:nonzero">
   <ellipse  rx="0.7344" ry="0.7344" cx="80.7840" cy="91.8881"/>
  </g>
  <g style="fill:none; stroke:#000000; stroke-width:  0.2203; stroke-linecap:butt; stroke-linejoin:miter; stroke-dasharray:none">
   <ellipse  rx="0.7344" ry="0.7344" cx="80.7840" cy="91.8881"/>
  </g>
  <g style="fill:#000000; fill-rule:nonzero">
   <ellipse  rx="0.7344" ry="0.7344" cx="84.4560" cy="93.3129"/>
  </g>
  <g style="fill:none; stroke:#000000; stroke-width:  0.2203; stroke-linecap:butt; stroke-linejoin:miter; stroke-dasharray:none">
   <ellipse  rx="0.7344" ry="0.7344" cx="84.4560" cy="93.3129"/>
  </g>
  <g style="fill:#000000; fill-rule:nonzero">
   <ellipse  rx="0.7344" ry="0.7344" cx="88.1280" cy="94.6245"/>
  </g>
  <g style="fill:none; stroke:#000000; stroke-width:  0.2203; stroke-linecap:butt; stroke-linejoin:miter; stroke-dasharray:none">
   <ellipse  rx="0.7344" ry="0.7344" cx="88.1280" cy="94.6245"/>
  </g>
  <g style="fill:#000000; fill-rule:nonzero">
   <ellipse  rx="0.7344" ry="0.7344" cx="91.8000" cy="95.8377"/>
  </g>
  <g style="fill:none; stroke:#000000; stroke-width:  0.2203; stroke-linecap:butt; stroke-linejoin:miter; stroke-dasharray:none">
   <ellipse  rx="0.7344" ry="0.7344" cx="91.8000" cy="95.8377"/>
  </g>
  <g style="fill:#000000; fill-rule:nonzero">
   <ellipse  rx="0.7344" ry="0.7344" cx="95.4720" cy="96.9702"/>
  </g>
  <g style="fill:none; stroke:#000000; stroke-width:  0.2203; stroke-linecap:butt; stroke-linejoin:miter; stroke-dasharray:none">
   <ellipse  rx="0.7344" ry="0.7344" cx="95.4720" cy="96.9702"/>
  </g>
  <g style="fill:#000000; fill-rule:nonzero">
   <ellipse  rx="0.7344" ry="0.7344" cx="99.1440" cy="98.0277"/>
  </g>
  <g style="fill:none; stroke:#000000; stroke-width:  0.2203; stroke-linecap:butt; stroke-linejoin:miter; stroke-dasharray:none">
   <ellipse  rx="0.7344" ry="0.7344" cx="99.1440" cy="98.0277"/>
  </g>
  <g style="fill:#000000; fill-rule:nonzero">
   <ellipse  rx="0.7344" ry="0.7344" cx="102.8160" cy="99.0412"/>
  </g>
  <g style="fill:none; stroke:#000000; stroke-width:  0.2203; stroke-linecap:butt; stroke-linejoin:miter; stroke-dasharray:none">
   <ellipse  rx="0.7344" ry="0.7344" cx="102.8160" cy="99.0412"/>
  </g>
  <g style="fill:#000000; fill-rule:nonzero">
   <ellipse  rx="0.7344" ry="0.7344" cx="106.4880" cy="99.9812"/>
  </g>
  <g style="fill:none; stroke:#000000; stroke-width:  0.2203; stroke-linecap:butt; stroke-linejoin:miter; stroke-dasharray:none">
   <ellipse  rx="0.7344" ry="0.7344" cx="106.4880" cy="99.9812"/>
  </g>
  <g style="fill:#000000; fill-rule:nonzero">
   <ellipse  rx="0.7344" ry="0.7344" cx="110.1600" cy="100.8919"/>
  </g>
  <g style="fill:none; stroke:#000000; stroke-width:  0.2203; stroke-linecap:butt; stroke-linejoin:miter; stroke-dasharray:none">
   <ellipse  rx="0.7344" ry="0.7344" cx="110.1600" cy="100.8919"/>
  </g>
  <g style="fill:#000000; fill-rule:nonzero">
   <ellipse  rx="0.7344" ry="0.7344" cx="113.8320" cy="101.7585"/>
  </g>
  <g style="fill:none; stroke:#000000; stroke-width:  0.2203; stroke-linecap:butt; stroke-linejoin:miter; stroke-dasharray:none">
   <ellipse  rx="0.7344" ry="0.7344" cx="113.8320" cy="101.7585"/>
  </g>
  <g style="fill:#000000; fill-rule:nonzero">
   <ellipse  rx="0.7344" ry="0.7344" cx="117.5040" cy="102.5810"/>
  </g>
  <g style="fill:none; stroke:#000000; stroke-width:  0.2203; stroke-linecap:butt; stroke-linejoin:miter; stroke-dasharray:none">
   <ellipse  rx="0.7344" ry="0.7344" cx="117.5040" cy="102.5810"/>
  </g>
  <g style="fill:#000000; fill-rule:nonzero">
   <ellipse  rx="0.7344" ry="0.7344" cx="121.1760" cy="103.3595"/>
  </g>
  <g style="fill:none; stroke:#000000; stroke-width:  0.2203; stroke-linecap:butt; stroke-linejoin:miter; stroke-dasharray:none">
   <ellipse  rx="0.7344" ry="0.7344" cx="121.1760" cy="103.3595"/>
  </g>
  <g style="fill:#000000; fill-rule:nonzero">
   <ellipse  rx="0.7344" ry="0.7344" cx="124.8480" cy="104.0939"/>
  </g>
  <g style="fill:none; stroke:#000000; stroke-width:  0.2203; stroke-linecap:butt; stroke-linejoin:miter; stroke-dasharray:none">
   <ellipse  rx="0.7344" ry="0.7344" cx="124.8480" cy="104.0939"/>
  </g>
  <g style="fill:#000000; fill-rule:nonzero">
   <ellipse  rx="0.7344" ry="0.7344" cx="128.5200" cy="104.7695"/>
  </g>
  <g style="fill:none; stroke:#000000; stroke-width:  0.2203; stroke-linecap:butt; stroke-linejoin:miter; stroke-dasharray:none">
   <ellipse  rx="0.7344" ry="0.7344" cx="128.5200" cy="104.7695"/>
  </g>
  <g style="fill:#000000; fill-rule:nonzero">
   <ellipse  rx="0.7344" ry="0.7344" cx="132.1920" cy="105.3864"/>
  </g>
  <g style="fill:none; stroke:#000000; stroke-width:  0.2203; stroke-linecap:butt; stroke-linejoin:miter; stroke-dasharray:none">
   <ellipse  rx="0.7344" ry="0.7344" cx="132.1920" cy="105.3864"/>
  </g>
  <g style="fill:#000000; fill-rule:nonzero">
   <ellipse  rx="0.7344" ry="0.7344" cx="135.8640" cy="105.9152"/>
  </g>
  <g style="fill:none; stroke:#000000; stroke-width:  0.2203; stroke-linecap:butt; stroke-linejoin:miter; stroke-dasharray:none">
   <ellipse  rx="0.7344" ry="0.7344" cx="135.8640" cy="105.9152"/>
   <path d="M22.0320,22.0320L168.9120,22.0320"/>
   <path d="M22.0320,124.8480L168.9120,124.8480"/>
   <path d="M40.3920,22.0320L40.3920,23.5008"/>
   <path d="M40.3920,124.8480L40.3920,123.3792"/>
   <path d="M77.1120,22.0320L77.1120,23.5008"/>
   <path d="M77.1120,124.8480L77.1120,123.3792"/>
   <path d="M113.8320,22.0320L113.8320,23.5008"/>
   <path d="M113.8320,124.8480L113.8320,123.3792"/>
   <path d="M150.5520,22.0320L150.5520,23.5008"/>
   <path d="M150.5520,124.8480L150.5520,123.3792"/>
   <path d="M22.0320,22.0320L22.0320,24.9696"/>
   <path d="M22.0320,124.8480L22.0320,121.9104"/>
   <path d="M58.7520,22.0320L58.7520,24.9696"/>
   <path d="M58.7520,124.8480L58.7520,121.9104"/>
   <path d="M95.4720,22.0320L95.4720,24.9696"/>
   <path d="M95.4720,124.8480L95.4720,121.9104"/>
   <path d="M132.1920,22.0320L132.1920,24.9696"/>
   <path d="M132.1920,124.8480L132.1920,121.9104"/>
   <path d="M168.9120,22.0320L168.9120,24.9696"/>
   <path d="M168.9120,124.8480L168.9120,121.9104"/>
  </g>
  <g style="fill:#000000; fill-rule:nonzero">
   <text   style="font-family:'Helvetica','Nimbus Sans L'; font-style:normal; font-weight:normal; font-size:146.8800" transform="matrix(0.0280,0.0000,-0.0000,-0.0280,20.9520,17.6832)">0</text>
   <text   style="font-family:'Helvetica','Nimbus Sans L'; font-style:normal; font-weight:normal; font-size:146.8800" transform="matrix(0.0280,0.0000,-0.0000,-0.0280,56.4720,17.6832)">10</text>
   <text   style="font-family:'Helvetica','Nimbus Sans L'; font-style:normal; font-weight:normal; font-size:146.8800" transform="matrix(0.0280,0.0000,-0.0000,-0.0280,93.1920,17.6832)">20</text>
   <text   style="font-family:'Helvetica','Nimbus Sans L'; font-style:normal; font-weight:normal; font-size:146.8800" transform="matrix(0.0280,0.0000,-0.0000,-0.0280,129.9120,17.6832)">30</text>
   <text   style="font-family:'Helvetica','Nimbus Sans L'; font-style:normal; font-weight:normal; font-size:146.8800" transform="matrix(0.0280,0.0000,-0.0000,-0.0280,166.6320,17.6832)">40</text>
   <text   style="font-family:'Helvetica','Nimbus Sans L'; font-style:normal; font-weight:normal; font-size:146.8800" transform="matrix(0.0280,0.0000,-0.0000,-0.0280,91.2720,13.3344)">Step</text>
  </g>
  <g style="fill:none; stroke:#000000; stroke-width:  0.2203; stroke-linecap:butt; stroke-linejoin:miter; stroke-dasharray:none">
   <path d="M22.0320,22.0320L22.0320,124.8480"/>
   <path d="M168.9120,22.0320L168.9120,124.8480"/>
   <path d="M22.0320,29.3760L23.5008,29.3760"/>
   <path d="M168.9120,29.3760L167.4432,29.3760"/>
   <path d="M22.0320,44.0640L23.5008,44.0640"/>
   <path d="M168.9120,44.0640L167.4432,44.0640"/>
   <path d="M22.0320,58.7520L23.5008,58.7520"/>
   <path d="M168.9120,58.7520L167.4432,58.7520"/>
   <path d="M22.0320,73.4400L23.5008,73.4400"/>
   <path d="M168.9120,73.4400L167.4432,73.4400"/>
   <path d="M22.0320,88.1280L23.5008,88.1280"/>
   <path d="M168.9120,88.1280L167.4432,88.1280"/>
   <path d="M22.0320,102.8160L23.5008,102.8160"/>
   <path d="M168.9120,102.8160L167.4432,102.8160"/>
   <path d="M22.0320,117.5040L23.5008,117.5040"/>
   <path d="M168.9120,117.5040L167.4432,117.5040"/>
   <path d="M22.0320,22.0320L24.9696,22.0320"/>
   <path d="M168.9120,22.0320L165.9744,22.0320"/>
   <path d="M22.0320,36.7200L24.9696,36.7200"/>
   <path d="M168.9120,36.7200L165.9744,36.7200"/>
   <path d="M22.0320,51.4080L24.9696,51.4080"/>
   <path d="M168.9120,51.4080L165.9744,51.4080"/>
   <path d="M22.0320,66.0960L24.9696,66.0960"/>
   <path d="M168.9120,66.0960L165.9744,66.0960"/>
   <path d="M22.0320,80.7840L24.9696,80.7840"/>
   <path d="M168.9120,80.7840L165.9744,80.7840"/>
   <path d="M22.0320,95.4720L24.9696,95.4720"/>
   <path d="M168.9120,95.4720L165.9744,95.4720"/>
   <path d="M22.0320,110.1600L24.9696,110.1600"/>
   <path d="M168.9120,110.1600L165.9744,110.1600"/>
  </g>
  <g style="fill:#000000; fill-rule:nonzero">
   <text   style="font-family:'Helvetica','Nimbus Sans L'; font-style:normal; font-weight:normal; font-size:146.8800" transform="matrix(0.0280,0.0000,-0.0000,-0.0280,11.2032,20.5920)">-0.05</text>
   <text   style="font-family:'Helvetica','Nimbus Sans L'; font-style:normal; font-weight:normal; font-size:146.8800" transform="matrix(0.0280,0.0000,-0.0000,-0.0280,11.2032,35.2800)">-0.04</text>
   <text   style="font-family:'Helvetica','Nimbus Sans L'; font-style:normal; font-weight:normal; font-size:146.8800" transform="matrix(0.0280,0.0000,-0.0000,-0.0280,11.2032,49.9680)">-0.03</text>
   <text   style="font-family:'Helvetica','Nimbus Sans L'; font-style:normal; font-weight:normal; font-size:146.8800" transform="matrix(0.0280,0.0000,-0.0000,-0.0280,11.2032,64.6560)">-0.02</text>
   <text   style="font-family:'Helvetica','Nimbus Sans L'; font-style:normal; font-weight:normal; font-size:146.8800" transform="matrix(0.0280,0.0000,-0.0000,-0.0280,11.9232,79.3440)">-0.01</text>
   <text   style="font-family:'Helvetica','Nimbus Sans L'; font-style:normal; font-weight:normal; font-size:146.8800" transform="matrix(0.0280,0.0000,-0.0000,-0.0280,12.6432,94.0320)">0.00</text>
   <text   style="font-family:'Helvetica','Nimbus Sans L'; font-style:normal; font-weight:normal; font-size:146.8800" transform="matrix(0.0280,0.0000,-0.0000,-0.0280,13.3632,108.7200)">0.01</text>
   <text   style="font-family:'Symbol','Standard Symbols L'; font-style:normal; font-weight:normal; font-size:146.8800" transform="matrix(0.0000,0.0280,0.0280,-0.0000,9.7344,70.9200)">D</text>
   <text   style="font-family:'Helvetica','Nimbus Sans L'; font-style:normal; font-weight:normal; font-size:146.8800" transform="matrix(0.0000,0.0280,0.0280,-0.0000,9.7344,73.3200)">E</text>
  </g>
  <g style="fill:none; stroke:#000000; stroke-width:  0.2203; stroke-linecap:butt; stroke-linejoin:miter; stroke-dasharray:none">
   <path d="M22.0320,22.0320L22.0320,124.8480L168.9120,124.8480L168.9120,22.0320z"/>
  </g>
 </g>
</svg>
