<?xml version="1.0" encoding="ISO-8859-1"?>
<!DOCTYPE svg PUBLIC "-//W3C//DTD SVG 1.0//EN" "http://www.w3.org/TR/2001/REC-SVG-20010904/DTD/svg10.dtd">
<!-- generated by Grace-5.1.23 -->
<svg xml:space="preserve" width="11.0000in" height="8.5000in" viewBox="0.0000 0.0000 792.0000 612.0000">
 <g transform="translate(0,612.0000) scale(1,-1)">
  <g style="fill:#FFFFFF; fill-rule:nonzero">
   <path  d="M0.0000,0.0000L0.0000,612.0000L792.0000,612.0000L792.0000,0.0000z"/>
  </g>
  <g style="fill:none; stroke:#000000; stroke-width:  0.9180; stroke-linecap:butt; stroke-linejoin:miter; stroke-dasharray:none">
   <path d="M112.2000,224.6036L132.6000,520.1909L153.0000,520.1900L173.4000,520.1923L193.8000,520.1933L214.2000,520.1941L234.6000,520.1948L255.0000,520.1954L275.4000,520.1959L295.8000,520.1964
            L316.2000,520.1968L336.6000,520.1971L357.0000,520.1974L377.4000,520.1977L397.8000,520.1980L418.2000,520.1982L438.6000,520.1984L459.0000,520.1986L479.4000,520.1988L499.8000,520.1989
            L520.2000,520.1991L540.6000,520.1992L561.0000,520.1994L581.4000,520.1995L601.8000,520.1996L622.2000,520.1998L642.6000,520.1999"/>
   <path d="M91.8000,91.8000L703.8000,91.8000"/>
   <path d="M91.8000,520.2000L703.8000,520.2000"/>
   <path d="M142.8000,91.8000L142.8000,97.9200"/>
   <path d="M142.8000,520.2000L142.8000,514.0800"/>
   <path d="M244.8000,91.8000L244.8000,97.9200"/>
   <path d="M244.8000,520.2000L244.8000,514.0800"/>
   <path d="M346.8000,91.8000L346.8000,97.9200"/>
   <path d="M346.8000,520.2000L346.8000,514.0800"/>
   <path d="M448.8000,91.8000L448.8000,97.9200"/>
   <path d="M448.8000,520.2000L448.8000,514.0800"/>
   <path d="M550.8000,91.8000L550.8000,97.9200"/>
   <path d="M550.8000,520.2000L550.8000,514.0800"/>
   <path d="M652.8000,91.8000L652.8000,97.9200"/>
   <path d="M652.8000,520.2000L652.8000,514.0800"/>
   <path d="M91.8000,91.8000L91.8000,104.0400"/>
   <path d="M91.8000,520.2000L91.8000,507.9600"/>
   <path d="M193.8000,91.8000L193.8000,104.0400"/>
   <path d="M193.8000,520.2000L193.8000,507.9600"/>
   <path d="M295.8000,91.8000L295.8000,104.0400"/>
   <path d="M295.8000,520.2000L295.8000,507.9600"/>
   <path d="M397.8000,91.8000L397.8000,104.0400"/>
   <path d="M397.8000,520.2000L397.8000,507.9600"/>
   <path d="M499.8000,91.8000L499.8000,104.0400"/>
   <path d="M499.8000,520.2000L499.8000,507.9600"/>
   <path d="M601.8000,91.8000L601.8000,104.0400"/>
   <path d="M601.8000,520.2000L601.8000,507.9600"/>
   <path d="M703.8000,91.8000L703.8000,104.0400"/>
   <path d="M703.8000,520.2000L703.8000,507.9600"/>
  </g>
  <g style="fill:#000000; fill-rule:nonzero">
   <text   style="font-family:'Times','Nimbus Roman No9 L'; font-style:normal; font-weight:normal; font-size:612.0000" transform="matrix(0.0280,0.0000,-0.0000,-0.0280,87.8000,74.6800)">0</text>
   <text   style="font-family:'Times','Nimbus Roman No9 L'; font-style:normal; font-weight:normal; font-size:612.0000" transform="matrix(0.0280,0.0000,-0.0000,-0.0280,189.8000,73.6800)">5</text>
   <text   style="font-family:'Times','Nimbus Roman No9 L'; font-style:normal; font-weight:normal; font-size:612.0000" transform="matrix(0.0280,0.0000,-0.0000,-0.0280,287.3000,73.6800)">10</text>
   <text   style="font-family:'Times','Nimbus Roman No9 L'; font-style:normal; font-weight:normal; font-size:612.0000" transform="matrix(0.0280,0.0000,-0.0000,-0.0280,389.3000,73.6800)">15</text>
   <text   style="font-family:'Times','Nimbus Roman No9 L'; font-style:normal; font-weight:normal; font-size:612.0000" transform="matrix(0.0280,0.0000,-0.0000,-0.0280,491.3000,74.6800)">20</text>
   <text   style="font-family:'Times','Nimbus Roman No9 L'; font-style:normal; font-weight:normal; font-size:612.0000" transform="matrix(0.0280,0.0000,-0.0000,-0.0280,593.3000,73.6800)">25</text>
   <text   style="font-family:'Times','Nimbus Roman No9 L'; font-style:normal; font-weight:normal; font-size:612.0000" transform="matrix(0.0280,0.0000,-0.0000,-0.0280,695.3000,74.6800)">30</text>
   <text   style="font-family:'Symbol','Standard Symbols L'; font-style:normal; font-weight:normal; font-size:612.0000" transform="matrix(0.0280,0.0000,-0.0000,-0.0280,387.8000,55.5600)">D</text>
   <text   style="font-family:'Times','Nimbus Roman No9 L'; font-style:normal; font-weight:normal; font-size:612.0000" transform="matrix(0.0280,0.0000,-0.0000,-0.0280,397.8000,55.5600)">E</text>
  </g>
  <g style="fill:none; stroke:#000000; stroke-width:  0.9180; stroke-linecap:butt; stroke-linejoin:miter; stroke-dasharray:none">
   <path d="M91.8000,91.8000L91.8000,520.2000"/>
   <path d="M703.8000,91.8000L703.8000,520.2000"/>
   <path d="M91.8000,145.3498L97.9200,145.3498"/>
   <path d="M703.8000,145.3498L697.6800,145.3498"/>
   <path d="M91.8000,252.4495L97.9200,252.4495"/>
   <path d="M703.8000,252.4495L697.6800,252.4495"/>
   <path d="M91.8000,359.5492L97.9200,359.5492"/>
   <path d="M703.8000,359.5492L697.6800,359.5492"/>
   <path d="M91.8000,466.6489L97.9200,466.6489"/>
   <path d="M703.8000,466.6489L697.6800,466.6489"/>
   <path d="M91.8000,91.8000L104.0400,91.8000"/>
   <path d="M703.8000,91.8000L691.5600,91.8000"/>
   <path d="M91.8000,198.8997L104.0400,198.8997"/>
   <path d="M703.8000,198.8997L691.5600,198.8997"/>
   <path d="M91.8000,305.9994L104.0400,305.9994"/>
   <path d="M703.8000,305.9994L691.5600,305.9994"/>
   <path d="M91.8000,413.0990L104.0400,413.0990"/>
   <path d="M703.8000,413.0990L691.5600,413.0990"/>
   <path d="M91.8000,520.1987L104.0400,520.1987"/>
   <path d="M703.8000,520.1987L691.5600,520.1987"/>
  </g>
  <g style="fill:#000000; fill-rule:nonzero">
   <text   style="font-family:'Times','Nimbus Roman No9 L'; font-style:normal; font-weight:normal; font-size:612.0000" transform="matrix(0.0280,0.0000,-0.0000,-0.0280,46.6800,86.3000)">-2000</text>
   <text   style="font-family:'Times','Nimbus Roman No9 L'; font-style:normal; font-weight:normal; font-size:612.0000" transform="matrix(0.0280,0.0000,-0.0000,-0.0280,46.6800,192.8997)">-1500</text>
   <text   style="font-family:'Times','Nimbus Roman No9 L'; font-style:normal; font-weight:normal; font-size:612.0000" transform="matrix(0.0280,0.0000,-0.0000,-0.0280,46.6800,299.9994)">-1000</text>
   <text   style="font-family:'Times','Nimbus Roman No9 L'; font-style:normal; font-weight:normal; font-size:612.0000" transform="matrix(0.0280,0.0000,-0.0000,-0.0280,54.6800,407.0990)">-500</text>
   <text   style="font-family:'Times','Nimbus Roman No9 L'; font-style:normal; font-weight:normal; font-size:612.0000" transform="matrix(0.0280,0.0000,-0.0000,-0.0280,77.6800,514.6987)">0</text>
  </g>
  <g style="fill:none; stroke:#000000; stroke-width:  0.9180; stroke-linecap:butt; stroke-linejoin:miter; stroke-dasharray:none">
   <path d="M91.8000,91.8000L91.8000,520.2000L703.8000,520.2000L703.8000,91.8000z"/>
  </g>
 </g>
</svg>
